<?xml version="1.0" encoding="UTF-8" standalone="no"?>
<!DOCTYPE svg PUBLIC "-//W3C//DTD SVG 1.1//EN" "http://www.w3.org/Graphics/SVG/1.1/DTD/svg11.dtd">
<svg width="100%" height="100%" viewBox="0 0 4423 1539" version="1.1" xmlns="http://www.w3.org/2000/svg" xmlns:xlink="http://www.w3.org/1999/xlink" xml:space="preserve" xmlns:serif="http://www.serif.com/" style="fill-rule:evenodd;clip-rule:evenodd;stroke-miterlimit:10;">
    <g transform="matrix(1,0,0,1,-172,-1594)">
        <g id="Lettermark" transform="matrix(4.16667,0,0,4.16667,0,0)">
            <g transform="matrix(1.46202,0,0,1.57101,-50.7952,59.0091)">
                <text x="145.801px" y="377.09px" style="font-family:'Gentona-ExtraBoldDEMO', 'Gentona';font-weight:800;font-size:250px;fill:rgb(12,64,96);">L<tspan x="279.816px 449.832px 596.848px " y="377.09px 377.09px 377.09px ">HSA</tspan></text>
            </g>
            <g transform="matrix(1.65302,0,0,1.64643,-88.6146,-8.98982)">
                <text x="161.199px" y="446.514px" style="font-family:'Gentona-ExtraBoldDEMO', 'Gentona';font-weight:800;font-size:29.968px;fill:rgb(12,64,96);">LA<tspan x="195.513px 212.684px " y="446.514px 446.514px ">TI</tspan>NX <tspan x="270.544px " y="446.514px ">H</tspan>EA<tspan x="328.202px 340.669px 357.841px 377.89px 386.601px 403.114px 420.225px 439.675px 458.914px 475.097px 495.176px 512.737px 521.449px 542.097px 558.849px 575.691px 596.189px 614.29px 622.501px 641.081px 658.253px 666.344px 686.543px " y="446.514px 446.514px 446.514px 446.514px 446.514px 446.514px 446.514px 446.514px 446.514px 446.514px 446.514px 446.514px 446.514px 446.514px 446.514px 446.514px 446.514px 446.514px 446.514px 446.514px 446.514px 446.514px 446.514px ">LTH STUDENT ASSOCIATION</tspan></text>
            </g>
            <g transform="matrix(1.09808,0,0,0.997157,180.278,673.57)">
                <path d="M0,0L817.233,0" style="fill:none;fill-rule:nonzero;stroke:rgb(179,201,226);stroke-width:4.77px;"/>
            </g>
        </g>
        <g id="Rod-of-Asclepius" serif:id="Rod of Asclepius" transform="matrix(2.51574,0,0,2.51574,-29.9232,-141.532)">
            <path id="Rod" d="M154.452,742.958C154.452,742.958 148.745,732.39 148.745,726.616C148.745,706.405 165.154,689.996 185.365,689.996C205.577,689.996 221.986,706.405 221.986,726.616C221.986,732.014 219.499,736.98 217.398,741.595C217.087,749.714 202.44,1167.02 202.183,1179.44C200.561,1257.86 185.757,1301.56 185.757,1301.56L154.452,742.958Z" style="fill:rgb(180,200,225);"/>
            <path id="Snake" d="M199.998,1220.61C211.253,1226.36 220.345,1233.41 217.84,1246.58C211.044,1282.33 165.708,1278.87 165.708,1278.87C165.708,1278.87 206.071,1258.56 201.026,1245C200.403,1243.33 199.454,1242.04 197.902,1240.54L199.998,1220.61ZM178.05,1164.03L179.553,1190.84C176.326,1193.1 174.051,1195.7 173.358,1198.4C171.979,1203.79 175.315,1207.44 180.675,1210.88L181.765,1230.32C168.72,1223.22 153.747,1214.68 152.226,1199.55C150.58,1183.19 163.613,1173.18 178.05,1164.03ZM203.253,1146.91C210.233,1140.5 215.037,1132.56 213.603,1122.74C208.283,1086.27 132.862,1076.99 128.424,1009.76C124.18,945.453 236.044,928.188 228.088,896.569C226.465,890.117 220.564,884.662 212.479,881.47L214.052,836.586C242.02,844.985 266.892,861.551 269.082,897.278C272.713,956.506 173.668,968.146 164.065,1005.68C151.629,1054.29 241.49,1059.25 236.343,1126.77C234.153,1155.5 217.918,1169.9 202.19,1179.14L203.253,1146.91ZM161.467,868.13C127.649,859.942 90.847,847.11 81.565,801.557C67.313,731.614 208.154,692.491 213.206,715.926C230.345,795.418 113.712,744.264 119.099,796.436C120.851,813.406 138.141,819.202 159.007,824.23L161.467,868.13Z" style="fill:rgb(11,64,96);"/>
        </g>
    </g>
</svg>
