<?xml version="1.0" encoding="UTF-8" standalone="no"?><!DOCTYPE svg PUBLIC "-//W3C//DTD SVG 1.1//EN" "http://www.w3.org/Graphics/SVG/1.1/DTD/svg11.dtd"><svg width="100%" height="100%" viewBox="0 0 5000 2130" version="1.1" xmlns="http://www.w3.org/2000/svg" xmlns:xlink="http://www.w3.org/1999/xlink" xml:space="preserve" xmlns:serif="http://www.serif.com/" style="fill-rule:evenodd;clip-rule:evenodd;stroke-linejoin:round;stroke-miterlimit:2;"><g><rect x="0" y="-376.08" width="5000" height="3999" style="fill:#024b68;fill-rule:nonzero;"/><path d="M5000,1369.04l0,2253.88l-3980.46,0l-848.41,-2429.81l4249.37,-1483.74l579.5,1659.67Z" style="fill:#bcbec0;fill-rule:nonzero;"/><path d="M5000,1663l0,1959.92l-3877.82,0l-823.19,-2357.6l2033.19,-709.92l2033.2,-709.93l634.62,1817.53Z" style="fill:url(#_Radial1);"/><path d="M2194.43,1197.35l-87.94,-251.84c-3.18,-9.13 -5.13,-17.37 -5.84,-24.72c-0.7,-7.36 0.9,-14.55 4.8,-21.58c3.91,-7.03 11.46,-13.19 22.64,-18.49l-2.1,-6.02l-105.38,36.8l2.1,6.01c16.12,-3.14 29.09,-2.67 38.9,1.43c9.809,4.1 17.93,15.35 24.35,33.74l48.82,139.82l-255.23,-131.75l-110.78,38.68l2.1,6.02c14.69,-2.81 34.42,1.48 59.18,12.85c3.12,1.39 6.62,2.96 10.49,4.71c3.87,1.76 6.64,3.04 8.33,3.85c1.86,0.9 3.31,1.48 4.33,1.74l70.62,202.26c9.88,27.43 -0.02,47.72 -29.71,60.88l2.1,6.01l109.11,-38.1l-2.1,-6.01c-17.03,4.55 -30.4,2.82 -40.1,-5.2c-9.7,-8.02 -17.06,-19.21 -22.09,-33.6l-60.04,-171.97l305.76,157.16l7.68,-2.68Z" style="fill:#231f20;fill-rule:nonzero;"/><path d="M2452.24,1021.22l-6.02,2.1c1.02,16.25 0.35,29.32 -2.01,39.22c-2.36,9.9 -6.94,17.9 -13.73,23.99c-6.8,6.1 -16.49,11.35 -29.07,15.74l-18.67,6.52c-26.28,9.17 -43.85,1.04 -52.74,-24.41l-30.71,-87.96l49.16,-17.16c11.06,-3.87 21.4,-4.92 31.02,-3.15c9.61,1.76 17.83,9.06 24.63,21.88l6.02,-2.1l-31.29,-89.61l-6.02,2.1c3.34,13.11 2.79,24.09 -1.65,32.93c-4.44,8.84 -13.99,15.82 -28.65,20.94l-49.16,17.16l-44.84,-128.41l61.61,-21.51c10.79,-3.76 19.98,-4.76 27.58,-2.99c7.6,1.76 14.4,5.79 20.4,12.08c5.99,6.28 12.38,14.68 19.15,25.19l6.02,-2.1l-26.39,-67.59l-220.52,77l2.1,6.02l2.08,-0.73c15.48,-5.41 26.72,-4.98 33.72,1.26c6.99,6.25 12.44,14.97 16.35,26.17l74.75,214.09c4.11,11.75 5.07,22.08 2.91,30.98c-2.17,8.91 -11.27,16.16 -27.31,21.76l2.1,6.02l230.26,-80.4l-21.08,-75.03Z" style="fill:#231f20;fill-rule:nonzero;"/><path d="M2836.07,626.76l-98.12,34.27l2.1,6.01c9.23,-2.91 17.46,-3.88 24.7,-2.92c7.24,0.96 12.79,6.98 16.65,18.04c2.23,6.36 3.44,15.17 3.65,26.42l1.36,140.56l-0.83,0.29l-91.32,-118.23c-0.23,-0.22 -1.65,-2.17 -4.25,-5.84c-2.6,-3.67 -4.71,-6.81 -6.32,-9.43c-1.61,-2.62 -2.92,-5.38 -3.94,-8.29c-2.65,-7.6 -1.95,-13.24 2.13,-16.91c4.07,-3.67 10.11,-6.91 18.13,-9.71l-2.1,-6.02l-137.53,48.03l2.1,6.01c7.2,-2.04 13.19,-3.32 17.98,-3.83c4.78,-0.51 9.24,0.15 13.37,1.96c4.12,1.82 8.56,5.09 13.3,9.79l-0.36,174.91l-1.04,0.36l-92.46,-120.16c-4.63,-6.14 -7.76,-11.56 -9.4,-16.26c-2.61,-7.47 -1.89,-14.08 2.15,-19.84c4.04,-5.75 9.93,-10.21 17.67,-13.38l-2.1,-6.02l-140.65,49.11l2.1,6.02c5.63,-1.65 11.23,-2.6 16.81,-2.85c5.58,-0.23 11.83,1.34 18.76,4.74c6.93,3.4 13.86,9.71 20.8,18.92l181.79,235.36l6.85,-2.39l0.15,-283.53l0.83,-0.29l172.86,223.12l6.22,-2.17l-1.7,-276.83c-0.11,-20.75 2.39,-36.71 7.48,-47.88c5.1,-11.17 13.2,-19.54 24.28,-25.12l-2.1,-6.02Z" style="fill:#231f20;fill-rule:nonzero;"/><path d="M3121.93,776.91c-4.83,-13.83 -12.05,-25.19 -21.68,-34.09c-9.62,-8.9 -21.61,-16.11 -35.95,-21.66c-14.35,-5.54 -32.14,-10.73 -53.38,-15.57c-3.87,-1.29 -14.3,-3.85 -31.31,-7.69c-15.25,-3.67 -27.08,-7.77 -35.48,-12.28c-8.41,-4.51 -14.2,-8.77 -17.38,-12.78c-3.19,-4.01 -5.6,-8.37 -7.24,-13.07c-2.85,-8.16 -3.33,-16.09 -1.45,-23.81c1.88,-7.72 5.73,-14.49 11.53,-20.32c5.8,-5.82 12.92,-10.21 21.35,-13.16c17.15,-5.99 33.66,-5.58 49.53,1.211c15.87,6.789 29.91,18.769 42.1,35.919l8.09,-2.83l-27.74,-79.45l-6.43,2.25c-0.65,3.48 -1.64,6.31 -2.97,8.49c-1.34,2.17 -4.36,4.08 -9.06,5.72c-3.04,1.06 -7.8,2.1 -14.27,3.12c-2.55,0.27 -5.7,0.56 -9.47,0.86c-3.77,0.31 -6.75,0.69 -8.92,1.14c-8.32,1.04 -16.7,3.04 -25.14,5.98c-18.12,6.33 -32.62,16.551 -43.52,30.67c-10.89,14.13 -17.64,29.79 -20.25,46.99c-2.6,17.2 -1.29,33.27 3.92,48.2c2.7,7.75 6.25,14.69 10.65,20.84c4.39,6.15 10.21,11.8 17.44,16.95c7.23,5.16 16.47,9.96 27.72,14.41c11.25,4.45 24.43,8.54 39.54,12.26c28.59,6.78 48.15,11.7 58.69,14.77c10.53,3.07 18.99,6.95 25.35,11.63c6.37,4.68 11,11.17 13.9,19.46c4.3,12.31 2.93,24.51 -4.1,36.58c-7.04,12.08 -18.23,20.79 -33.58,26.15c-10.51,3.67 -22.09,4.96 -34.72,3.87c-12.64,-1.1 -25.19,-5.6 -37.65,-13.51c-12.46,-7.9 -22.85,-19.56 -31.18,-34.96l-8.09,2.82l28.27,86.95l7.26,-2.53c0.54,-7.79 4.05,-12.82 10.56,-15.09c2.62,-0.92 5.75,-1.62 9.38,-2.12c3.63,-0.49 6.65,-0.84 9.06,-1.06c21.75,-1.24 40.16,-4.49 55.24,-9.75c14.66,-5.12 27.51,-11.97 38.55,-20.56c11.05,-8.59 19.76,-18.3 26.14,-29.14c6.37,-10.84 10.2,-22.33 11.46,-34.49c1.26,-12.16 -0.32,-24.59 -4.77,-37.32Z" style="fill:#231f20;fill-rule:nonzero;"/><path d="M4344.42,565.487l-3580.86,1250.31l-7.682,-22l3580.85,-1250.32l7.69,22.004Z" style="fill:#939598;fill-rule:nonzero;"/><path d="M4506.48,1029.63l462.44,1324.41l-2362.75,825l-462.44,-1324.42l2362.75,-824.99Z" style="fill:#a7a9ac;fill-rule:nonzero;"/><path d="M4685.69,1542.87l283.23,811.17l-2362.75,825l-292.9,-838.85c115.09,-81.92 219.33,-163.77 286.39,-217.89c218.17,-176.03 749.51,-365.19 895.01,-312.5c145.51,52.7 718.03,90.66 1086.35,-201.37c32.72,-25.95 67.83,-47.61 104.67,-65.56Z" style="fill:#939598;fill-rule:nonzero;"/><path d="M4441.97,844.88l-3580.85,1250.31l-64.502,-184.73l3580.85,-1250.32l64.5,184.74Z" style="fill:#939598;fill-rule:nonzero;"/><path d="M2091.81,1941.92l-1144.65,399.68l-28.256,-80.93l1144.66,-399.67l28.25,80.92Z" style="fill:#939598;fill-rule:nonzero;"/><path d="M2146.28,2097.9l-1144.66,399.68l-28.256,-80.92l1144.66,-399.68l28.26,80.92Z" style="fill:#939598;fill-rule:nonzero;"/></g><defs><radialGradient id="_Radial1" cx="0" cy="0" r="1" gradientUnits="userSpaceOnUse" gradientTransform="matrix(2054.01,0,0,2054.01,2696.27,1298.66)"><stop offset="0" style="stop-color:#fff;stop-opacity:1"/><stop offset="1" style="stop-color:#e7e8e9;stop-opacity:1"/></radialGradient></defs></svg>